<svg width="579" height="476" viewBox="0 0 579 476" fill="none" xmlns="http://www.w3.org/2000/svg">
<path fill-rule="evenodd" clip-rule="evenodd" d="M289.5 0L317.206 22.4782L352.451 16.8233L365.126 50.1871L398.487 62.8635L392.832 98.1123L415.308 125.821L392.832 153.53L398.487 188.779L365.126 201.455L352.451 234.819L317.206 229.164L289.5 251.642L261.794 229.164L226.549 234.819L213.874 201.455L180.514 188.779L186.168 153.53L163.692 125.821L186.168 98.1123L180.514 62.8635L213.874 50.1871L226.549 16.8233L261.794 22.4782L289.5 0ZM312.918 399.518H416.156C424.449 391.271 433.543 382.694 442.732 373.976C462.098 355.645 482.312 336.513 503.091 312.574C526.839 285.195 529.384 275.723 536.593 248.909C537.959 243.867 539.467 238.212 541.446 231.191L553.791 187.789L553.933 187.318C560.529 167.997 561.048 155.227 558.315 147.875C557.467 145.613 556.383 144.105 555.111 143.304C554.121 142.644 552.802 142.409 551.435 142.55C548.231 142.88 544.603 144.906 541.305 148.535L504.646 235.856C504.316 236.657 503.845 237.411 503.327 238.071C501.159 241.982 498.238 245.799 494.468 249.428L429.444 321.951C425.91 325.91 419.832 326.24 415.921 322.706C411.963 319.171 411.633 313.092 415.167 309.181C423.978 299.379 492.301 232.322 488.814 217.289C484.479 198.769 437.925 246.317 432.365 251.218L432.224 251.36C404.942 277.184 393.209 283.31 371.817 294.478C367.341 296.834 362.441 299.379 356.362 302.678C353.959 303.997 351.603 305.599 349.294 307.343C346.844 309.228 344.488 311.16 342.274 313.045C330.965 322.564 325.028 330.292 321.635 338.822C318.101 347.681 316.829 358.473 315.086 373.27C314.379 379.207 313.861 385.145 313.437 391.035C313.201 393.91 313.06 396.737 312.918 399.518ZM266.082 399.518H162.797C154.504 391.271 145.41 382.694 136.174 373.976C116.808 355.645 96.5943 336.513 75.8148 312.574C52.0668 285.195 49.5223 275.723 42.3131 248.909C40.9466 243.867 39.4388 238.212 37.4598 231.191L25.1146 187.789L24.9732 187.318C18.3766 167.997 17.8583 155.227 20.5912 147.875C21.4393 145.613 22.5231 144.105 23.7953 143.304C24.7848 142.644 26.1041 142.409 27.4706 142.55C30.6747 142.88 34.3028 144.906 37.6012 148.535L74.2599 235.856C74.5897 236.657 75.0609 237.411 75.5792 238.071C77.7467 241.982 80.6681 245.799 84.4376 249.428L149.462 321.951C152.996 325.91 159.074 326.24 162.985 322.706C166.943 319.171 167.273 313.092 163.739 309.181C155.022 299.332 86.6993 232.274 90.1861 217.242C94.5211 198.722 141.075 246.27 146.635 251.171L146.776 251.313C174.058 277.137 185.791 283.263 207.183 294.431C211.659 296.787 216.56 299.332 222.638 302.631C225.041 303.95 227.397 305.552 229.706 307.296C232.156 309.181 234.512 311.113 236.727 312.998C248.035 322.517 253.972 330.245 257.365 338.775C260.899 347.634 262.171 358.425 263.914 373.222C264.621 379.16 265.14 385.098 265.564 390.988C265.799 393.91 265.941 396.737 266.082 399.518ZM138.766 402.816C137.305 404.513 136.41 406.728 136.41 409.131V466.34C136.41 471.665 140.745 475.953 146.022 475.953H275.977C281.301 475.953 285.589 471.617 285.589 466.34V408.613C285.589 402.486 285.212 395.889 284.788 389.763C284.364 383.496 283.799 377.275 283.092 371.102C281.207 354.938 279.794 343.11 275.27 331.753C270.605 320.114 263.113 310.076 249.213 298.342C246.669 296.175 244.077 294.007 241.344 291.981C238.47 289.813 235.36 287.739 231.873 285.807C226.219 282.744 220.942 279.964 216.136 277.419C196.346 267.052 185.508 261.397 160.017 237.27C159.828 237.081 159.593 236.893 159.404 236.751L134.808 215.027C122.369 200.466 97.7252 183.124 79.7728 198.863C70.2076 176.103 60.7838 126.481 29.4967 123.418C23.7953 122.852 18.2823 124.078 13.4762 127.188C8.90562 130.157 5.13609 134.775 2.78013 141.137C-1.36636 152.211 -1.27212 169.411 6.83238 193.209L19.0834 236.327C20.8739 242.547 22.4288 248.532 23.8895 253.81C31.8998 283.734 34.7269 294.337 61.4435 325.062C82.6 349.425 103.332 369.028 123.17 387.831C128.306 392.826 133.489 397.774 138.766 402.816ZM157.142 418.744C158.415 419.027 159.734 419.027 161.053 418.744H266.318V456.726H155.635V418.744H157.142ZM440.234 402.816C441.695 404.513 442.59 406.728 442.59 409.131V466.34C442.59 471.665 438.302 475.953 432.978 475.953H303.07C297.746 475.953 293.458 471.617 293.458 466.34V408.613C293.458 408.283 293.458 407.906 293.505 407.576C293.647 401.403 293.882 395.418 294.259 389.763C294.683 383.496 295.249 377.275 295.955 371.102C297.84 354.938 299.254 343.11 303.777 331.753C308.442 320.114 315.934 310.076 329.834 298.342C332.379 296.175 334.97 294.007 337.703 291.981C340.577 289.813 343.687 287.739 347.174 285.807C352.828 282.744 358.106 279.964 362.912 277.419C382.702 267.052 393.539 261.397 419.031 237.27C419.219 237.081 419.455 236.893 419.643 236.751L444.239 215.027C456.679 200.466 481.322 183.124 499.275 198.863C503.939 187.695 520.054 143.964 525.614 137.272C532.494 129.026 541.211 124.219 549.551 123.371C555.252 122.805 560.765 124.03 565.571 127.141C570.142 130.109 573.911 134.728 576.267 141.089C580.414 152.164 580.32 169.364 572.215 193.161L559.964 236.28C558.173 242.5 556.619 248.485 555.158 253.763C547.148 283.687 544.32 294.29 517.604 325.015C496.447 349.378 475.762 368.981 455.878 387.784C450.695 392.826 445.512 397.774 440.234 402.816ZM421.858 418.744C420.586 419.027 419.266 419.027 417.947 418.744H312.683V456.726H423.366V418.744H421.858ZM289.5 80.9591L302.458 112.626L336.619 115.171L310.515 137.272L318.667 170.542L289.547 152.493L260.428 170.542L268.579 137.319L242.381 115.218L276.542 112.674L289.5 81.0062V80.9591ZM289.5 54.711C328.75 54.711 360.556 86.5669 360.556 125.774C360.556 165.028 328.703 196.837 289.5 196.837C250.25 196.837 218.444 164.981 218.444 125.774C218.444 86.5669 250.25 54.711 289.5 54.711Z" fill="#FF7B1E"/>
</svg>
