<svg width="512" height="512" viewBox="0 0 512 512" fill="none" xmlns="http://www.w3.org/2000/svg">
<path d="M24 351.792V472C24 480.824 31.176 488 40 488C48.824 488 56 480.824 56 472V360H48C38.96 360 30.704 356.872 24 351.792Z" fill="#FF7B1E"/>
<path d="M48 344H104C112.824 344 120 351.176 120 360L119.992 408C119.992 412.272 121.656 416.288 124.672 419.312C127.696 422.336 131.72 424 135.992 424C144.824 424 152 416.824 152 407.992V336C152 322.768 141.232 312 128 312H96V224H159.528C168.384 224 177.104 221.008 184.08 215.576L234.784 176.136C238.104 173.56 240 169.688 240 165.496C240 158.056 233.944 152 226.504 152H223.16C220.264 152 217.384 152.96 215.056 154.704L161.056 195.2C156.944 198.288 151.832 200 146.664 200H80C49.128 200 24 225.128 24 256V320C24 333.232 34.768 344 48 344V344Z" fill="#FF7B1E"/>
<path d="M471.872 213.952L483.28 232.376L440.376 275.28L421.952 263.872C413.496 268.56 404.568 272.264 395.296 274.92L390.336 296H329.664L326.312 281.76L168 391.952V407.992C168 425.64 153.64 440 135.992 440C127.448 440 119.408 436.672 113.36 430.624C113.208 430.472 113.104 430.288 112.96 430.136L72 458.76V472C72 477.856 70.304 483.272 67.552 488H488V186.104L482.92 187.296C480.264 196.568 476.56 205.504 471.872 213.952V213.952ZM104 472H88V456H104V472ZM136 472H120V456H136V472ZM168 472H152V456H168V472ZM191.528 414.56L182.384 401.432L195.424 392.352L204.568 405.48L191.528 414.56ZM220.568 394.352L211.424 381.224L320.304 305.432L329.448 318.56L220.568 394.352ZM472 472H456V456H472V472ZM472 440H456V424H472V440ZM472 408H456V392H472V408Z" fill="#FF7B1E"/>
<path d="M88 184C110.091 184 128 166.091 128 144C128 121.909 110.091 104 88 104C65.9086 104 48 121.909 48 144C48 166.091 65.9086 184 88 184Z" fill="#FF7B1E"/>
<path d="M360 184C377.673 184 392 169.673 392 152C392 134.327 377.673 120 360 120C342.327 120 328 134.327 328 152C328 169.673 342.327 184 360 184Z" fill="#FF7B1E"/>
<path d="M360 72C315.888 72 280 107.888 280 152C280 196.112 315.888 232 360 232C404.112 232 440 196.112 440 152C440 107.888 404.112 72 360 72ZM360 200C333.528 200 312 178.472 312 152C312 125.528 333.528 104 360 104C386.472 104 408 125.528 408 152C408 178.472 386.472 200 360 200Z" fill="#FF7B1E"/>
<path d="M469.816 130.056L468.648 125.288C465.96 114.28 461.6 103.784 455.712 94.064L453.168 89.88L463 73.992L438.016 49.008L422.128 58.84L417.944 56.296C408.224 50.408 397.728 46.048 386.72 43.36L381.952 42.192L377.664 24H342.336L338.056 42.184L333.288 43.352C322.28 46.04 311.784 50.4 302.064 56.288L297.88 58.832L281.992 49L257.008 73.984L266.84 89.872L264.296 94.056C258.408 103.776 254.048 114.272 251.36 125.28L250.192 130.048L232 134.336V136.552C245.64 139.136 256 151.104 256 165.488C256 170.84 254.44 175.88 251.816 180.336C254.528 190.744 258.696 200.696 264.288 209.936L266.832 214.12L257 230.008L281.984 254.992L297.872 245.16L302.056 247.704C311.776 253.592 322.272 257.952 333.28 260.64L338.048 261.808L342.336 280H377.664L381.944 261.816L386.712 260.648C397.72 257.96 408.216 253.6 417.936 247.712L422.12 245.168L438.008 255L462.992 230.016L453.16 214.128L455.704 209.944C461.592 200.224 465.952 189.728 468.64 178.72L469.808 173.952L488 169.664V168V134.336L469.816 130.056ZM360 248C307.064 248 264 204.936 264 152C264 99.064 307.064 56 360 56C412.936 56 456 99.064 456 152C456 204.936 412.936 248 360 248Z" fill="#FF7B1E"/>
</svg>
