<svg width="53" height="53" viewBox="0 0 53 53" fill="none" xmlns="http://www.w3.org/2000/svg">
<g filter="url(#filter0_d)">
<circle cx="26.5" cy="22.5" r="22.5" fill="#E1E1E1"/>
</g>
<path d="M38.9145 32.5487L39.3293 34.2304L35.5323 31.9979L35.415 31.9289H35.2789H22.6799C22.0755 31.9289 21.4549 31.6645 20.9831 31.2507C20.5274 30.8511 20.2666 30.3645 20.2445 29.9289H36.2219C37.2052 29.9289 37.9789 29.5418 38.4979 28.9167C39.007 28.3034 39.2429 27.4969 39.2429 26.6849V17.9299H39.5849C40.2211 17.9299 40.6128 18.1237 40.8511 18.3865C41.097 18.6577 41.2429 19.0722 41.2429 19.6269V29.8689C41.2429 30.4286 41.0946 30.9569 40.8189 31.3314C40.556 31.6885 40.1636 31.9289 39.5849 31.9289H39.3999H38.7616L38.9145 32.5487Z" fill="#FF7B1E" stroke="black"/>
<path d="M14.7005 28.1004L14.8507 27.5303L14.2638 27.4752C13.5519 27.4083 12.8325 27.1571 12.3042 26.7881C11.7714 26.4159 11.5 25.9777 11.5 25.538V13.938C11.5 13.4332 11.854 12.8273 12.4912 12.3192C13.1176 11.8197 13.9163 11.5 14.622 11.5H33.762C34.4575 11.5 35.15 11.8118 35.6726 12.2953C36.1993 12.7826 36.5 13.3924 36.5 13.938V16.153V25.538C36.5 26.0617 36.221 26.5397 35.7185 26.9049C35.213 27.2724 34.5087 27.5 33.762 27.5H19.76H19.6238L19.5065 27.569L13.9847 30.8175L14.7005 28.1004ZM15.313 19.063C15.313 20.2941 16.3109 21.292 17.542 21.292C18.772 21.292 19.771 20.2943 19.771 19.063C19.771 17.8317 18.772 16.834 17.542 16.834C16.3109 16.834 15.313 17.8319 15.313 19.063ZM21.771 19.063C21.771 20.2941 22.7689 21.292 24 21.292C25.2311 21.292 26.229 20.2941 26.229 19.063C26.229 17.8319 25.2311 16.834 24 16.834C22.7689 16.834 21.771 17.8319 21.771 19.063ZM28.229 19.063C28.229 20.2945 29.2282 21.292 30.459 21.292C31.6878 21.292 32.688 20.2945 32.688 19.063C32.688 17.8315 31.6878 16.834 30.459 16.834C29.2282 16.834 28.229 17.8315 28.229 19.063Z" fill="#FF7B1E" stroke="black"/>
<defs>
<filter id="filter0_d" x="0" y="0" width="53" height="53" filterUnits="userSpaceOnUse" color-interpolation-filters="sRGB">
<feFlood flood-opacity="0" result="BackgroundImageFix"/>
<feColorMatrix in="SourceAlpha" type="matrix" values="0 0 0 0 0 0 0 0 0 0 0 0 0 0 0 0 0 0 127 0"/>
<feOffset dy="4"/>
<feGaussianBlur stdDeviation="2"/>
<feColorMatrix type="matrix" values="0 0 0 0 0 0 0 0 0 0 0 0 0 0 0 0 0 0 0.25 0"/>
<feBlend mode="normal" in2="BackgroundImageFix" result="effect1_dropShadow"/>
<feBlend mode="normal" in="SourceGraphic" in2="effect1_dropShadow" result="shape"/>
</filter>
</defs>
</svg>
