<svg width="31" height="33" viewBox="0 0 31 33" fill="none" xmlns="http://www.w3.org/2000/svg">
<circle cx="15.5" cy="15.5" r="15.5" fill="white"/>
<g filter="url(#filter0_d)">
<path fill-rule="evenodd" clip-rule="evenodd" d="M15.5 5C9.58452 5 5 9.3331 5 15.1852C5 18.2465 6.25491 20.8916 8.2979 22.719C8.46902 22.8733 8.57254 23.0867 8.58099 23.3169L8.63804 25.1845C8.65704 25.7803 9.27182 26.1669 9.81692 25.9282L11.9 25.0092C12.0775 24.931 12.274 24.9162 12.4599 24.9669C13.4169 25.231 14.4373 25.3705 15.5 25.3705C21.4155 25.3705 26 21.0374 26 15.1852C26 9.3331 21.4155 5 15.5 5V5Z" fill="url(#paint0_linear)"/>
<path fill-rule="evenodd" clip-rule="evenodd" d="M9.19362 18.1653L12.2781 13.2723C12.7683 12.4949 13.8204 12.3005 14.5556 12.8519L17.0084 14.6921C17.2345 14.8611 17.5429 14.859 17.7669 14.69L21.0795 12.1759C21.5211 11.84 22.1 12.3703 21.8021 12.8393L18.7197 17.7301C18.2295 18.5076 17.1774 18.702 16.4422 18.1505L13.9894 16.3104C13.7633 16.1414 13.4549 16.1435 13.231 16.3125L9.91615 18.8287C9.47462 19.1646 8.89572 18.6343 9.19362 18.1653V18.1653Z" fill="white"/>
</g>
<defs>
<filter id="filter0_d" x="0" y="2" width="31" height="31" filterUnits="userSpaceOnUse" color-interpolation-filters="sRGB">
<feFlood flood-opacity="0" result="BackgroundImageFix"/>
<feColorMatrix in="SourceAlpha" type="matrix" values="0 0 0 0 0 0 0 0 0 0 0 0 0 0 0 0 0 0 127 0"/>
<feOffset dy="2"/>
<feGaussianBlur stdDeviation="2.5"/>
<feColorMatrix type="matrix" values="0 0 0 0 0.0509804 0 0 0 0 0.219608 0 0 0 0 0.733333 0 0 0 0.25 0"/>
<feBlend mode="normal" in2="BackgroundImageFix" result="effect1_dropShadow"/>
<feBlend mode="normal" in="SourceGraphic" in2="effect1_dropShadow" result="shape"/>
</filter>
<linearGradient id="paint0_linear" x1="15.5" y1="5.00001" x2="15.5" y2="26" gradientUnits="userSpaceOnUse">
<stop stop-color="#00B2FF"/>
<stop offset="1" stop-color="#006AFF"/>
</linearGradient>
</defs>
</svg>
