<svg width="31" height="25" viewBox="0 0 31 25" fill="none" xmlns="http://www.w3.org/2000/svg">
<path d="M28.5849 6.42993H27.7429V15.6849C27.7429 17.1259 26.9039 18.4289 25.2219 18.4289H8.74292V18.8689C8.74292 20.1429 10.1919 21.4289 11.6799 21.4289H24.2789L29.0989 24.2629L28.3999 21.4289H28.5849C30.0719 21.4289 30.7429 20.1459 30.7429 18.8689V8.62693C30.7429 7.35293 30.0719 6.42993 28.5849 6.42993Z" fill="#FF7B1E"/>
<path d="M22.762 0H3.622C1.938 0 0 1.496 0 2.938V14.538C0 15.866 1.642 16.825 3.217 16.973L2.192 20.864L8.76 17H22.762C24.446 17 26 15.979 26 14.538V5.153V2.938C26 1.496 24.445 0 22.762 0ZM6.542 9.792C5.587 9.792 4.813 9.018 4.813 8.063C4.813 7.108 5.587 6.334 6.542 6.334C7.496 6.334 8.271 7.108 8.271 8.063C8.271 9.018 7.496 9.792 6.542 9.792ZM13 9.792C12.045 9.792 11.271 9.018 11.271 8.063C11.271 7.108 12.045 6.334 13 6.334C13.955 6.334 14.729 7.108 14.729 8.063C14.729 9.018 13.955 9.792 13 9.792ZM19.459 9.792C18.504 9.792 17.729 9.018 17.729 8.063C17.729 7.108 18.504 6.334 19.459 6.334C20.412 6.334 21.188 7.108 21.188 8.063C21.188 9.018 20.412 9.792 19.459 9.792Z" fill="#FF7B1E"/>
</svg>
