<svg width="45" height="45" viewBox="0 0 45 45" fill="none" xmlns="http://www.w3.org/2000/svg">
<circle cx="22.5" cy="22.5" r="22.5" fill="white"/>
<path d="M35.5849 17.4299H34.7429V26.6849C34.7429 28.1259 33.9039 29.4289 32.2219 29.4289H15.7429V29.8689C15.7429 31.1429 17.1919 32.4289 18.6799 32.4289H31.2789L36.0989 35.2629L35.3999 32.4289H35.5849C37.0719 32.4289 37.7429 31.1459 37.7429 29.8689V19.6269C37.7429 18.3529 37.0719 17.4299 35.5849 17.4299Z" fill="#FF4C00"/>
<path d="M29.762 11H10.622C8.938 11 7 12.496 7 13.938V25.538C7 26.866 8.642 27.825 10.217 27.973L9.192 31.864L15.76 28H29.762C31.446 28 33 26.979 33 25.538V16.153V13.938C33 12.496 31.445 11 29.762 11ZM13.542 20.792C12.587 20.792 11.813 20.018 11.813 19.063C11.813 18.108 12.587 17.334 13.542 17.334C14.496 17.334 15.271 18.108 15.271 19.063C15.271 20.018 14.496 20.792 13.542 20.792ZM20 20.792C19.045 20.792 18.271 20.018 18.271 19.063C18.271 18.108 19.045 17.334 20 17.334C20.955 17.334 21.729 18.108 21.729 19.063C21.729 20.018 20.955 20.792 20 20.792ZM26.459 20.792C25.504 20.792 24.729 20.018 24.729 19.063C24.729 18.108 25.504 17.334 26.459 17.334C27.412 17.334 28.188 18.108 28.188 19.063C28.188 20.018 27.412 20.792 26.459 20.792Z" fill="#FF4C00"/>
</svg>
