<svg width="31" height="25" viewBox="0 0 31 25" fill="none" xmlns="http://www.w3.org/2000/svg">
<path d="M27.9145 21.5487L28.3293 23.2304L24.5323 20.9979L24.415 20.9289H24.2789H11.6799C11.0755 20.9289 10.4549 20.6645 9.98307 20.2507C9.52737 19.8511 9.26659 19.3645 9.24446 18.9289H25.2219C26.2052 18.9289 26.9789 18.5418 27.4979 17.9167C28.007 17.3034 28.2429 16.4969 28.2429 15.6849V6.92993H28.5849C29.2211 6.92993 29.6128 7.12372 29.8511 7.38654C30.097 7.65765 30.2429 8.07222 30.2429 8.62693V18.8689C30.2429 19.4286 30.0946 19.9569 29.8189 20.3314C29.556 20.6885 29.1636 20.9289 28.5849 20.9289H28.3999H27.7616L27.9145 21.5487Z" fill="#FF7B1E" stroke="black"/>
<path d="M3.70051 17.1004L3.85067 16.5303L3.26378 16.4752C2.55189 16.4083 1.8325 16.1571 1.30419 15.7881C0.77141 15.4159 0.5 14.9777 0.5 14.538V2.938C0.5 2.43318 0.854031 1.82733 1.49125 1.31916C2.11759 0.81967 2.91634 0.5 3.622 0.5H22.762C23.4575 0.5 24.15 0.811822 24.6726 1.29528C25.1993 1.78256 25.5 2.39245 25.5 2.938V5.153V14.538C25.5 15.0617 25.221 15.5397 24.7185 15.9049C24.213 16.2724 23.5087 16.5 22.762 16.5H8.76H8.62383L8.50647 16.569L2.98473 19.8175L3.70051 17.1004ZM4.313 8.063C4.313 9.29414 5.31086 10.292 6.542 10.292C7.77195 10.292 8.771 9.29433 8.771 8.063C8.771 6.83167 7.77195 5.834 6.542 5.834C5.31086 5.834 4.313 6.83186 4.313 8.063ZM10.771 8.063C10.771 9.29414 11.7689 10.292 13 10.292C14.2311 10.292 15.229 9.29414 15.229 8.063C15.229 6.83186 14.2311 5.834 13 5.834C11.7689 5.834 10.771 6.83186 10.771 8.063ZM17.229 8.063C17.229 9.29452 18.2282 10.292 19.459 10.292C20.6878 10.292 21.688 9.29452 21.688 8.063C21.688 6.83148 20.6878 5.834 19.459 5.834C18.2282 5.834 17.229 6.83148 17.229 8.063Z" fill="#FF7B1E" stroke="black"/>
</svg>
