<svg width="100" height="100" viewBox="0 0 100 100" fill="none" xmlns="http://www.w3.org/2000/svg">
<circle cx="50" cy="50" r="50" fill="white"/>
<path d="M50 21C34.05 21 21 34.05 21 50C21 65.95 34.05 79 50 79C65.95 79 79 65.95 79 50C79 34.05 65.95 21 50 21ZM50 29.7C54.93 29.7 58.7 33.47 58.7 38.4C58.7 43.33 54.93 47.1 50 47.1C45.07 47.1 41.3 43.33 41.3 38.4C41.3 33.47 45.07 29.7 50 29.7ZM50 70.88C42.75 70.88 36.37 67.1101 32.6 61.6C32.6 55.8 44.2 52.61 50 52.61C55.8 52.61 67.4 55.8 67.4 61.6C63.63 67.11 57.25 70.88 50 70.88Z" fill="black"/>
</svg>
