<svg width="45" height="45" viewBox="0 0 45 45" fill="none" xmlns="http://www.w3.org/2000/svg">
<g clip-path="url(#clip0)">
<path d="M41.696 10.7605L43.8792 8.57872C44.0568 8.40092 44.1799 8.17607 44.234 7.93064C44.2881 7.68522 44.2709 7.42944 44.1845 7.19345C44.0981 6.95745 43.9461 6.75106 43.7463 6.59859C43.5465 6.44611 43.3073 6.3539 43.0569 6.33281L39.0083 5.9919L38.6674 1.9419C38.6466 1.6913 38.5545 1.45188 38.402 1.25194C38.2495 1.05199 38.043 0.899864 37.8068 0.813537C37.5706 0.727211 37.3147 0.710289 37.0692 0.764771C36.8237 0.819252 36.5989 0.942861 36.4214 1.12099L34.2396 3.30281C30.7076 1.13639 26.6436 -0.00697352 22.5001 8.45052e-05C19.5442 -0.00804366 16.616 0.570264 13.8851 1.70152C11.1542 2.83279 8.67483 4.49453 6.59054 6.59054C4.49465 8.67492 2.83299 11.1543 1.70174 13.8852C0.570483 16.6161 -0.00789304 19.5442 8.45052e-05 22.5001C-0.00804366 25.456 0.570264 28.3842 1.70152 31.1151C2.83279 33.846 4.49453 36.3253 6.59054 38.4096C8.67492 40.5055 11.1543 42.1672 13.8852 43.2984C16.6161 44.4297 19.5442 45.0081 22.5001 45.0001C25.456 45.0082 28.3842 44.4299 31.1151 43.2986C33.846 42.1674 36.3253 40.5056 38.4096 38.4096C40.5055 36.3252 42.1672 33.8459 43.2984 31.115C44.4297 28.3841 45.0081 25.456 45.0001 22.5001C45.0001 18.326 43.8601 14.291 41.696 10.7605ZM36.4746 7.32281C36.5292 7.96372 37.0364 8.47099 37.6774 8.52554L40.0078 8.7219L36.8537 11.8746L33.416 11.5842L33.1255 8.14645L36.2783 4.99236L36.4746 7.32281ZM26.9837 22.5001C26.9826 23.6888 26.5099 24.8284 25.6692 25.6688C24.8286 26.5092 23.6888 26.9816 22.5001 26.9824C21.3116 26.9813 20.1722 26.5087 19.3318 25.6683C18.4915 24.828 18.0189 23.6885 18.0178 22.5001C18.0189 21.3116 18.4915 20.1722 19.3318 19.3318C20.1722 18.4915 21.3116 18.0189 22.5001 18.0178C23.2569 18.0178 23.9701 18.2074 24.596 18.5401L21.5687 21.5674C21.4462 21.6898 21.3491 21.8351 21.2827 21.995C21.2164 22.155 21.1822 22.3264 21.1822 22.4996C21.1821 22.6728 21.2162 22.8442 21.2824 23.0042C21.3486 23.1642 21.4456 23.3096 21.568 23.4321C21.6904 23.5546 21.8358 23.6518 21.9957 23.7181C22.1557 23.7844 22.3271 23.8186 22.5003 23.8187C22.6734 23.8187 22.8449 23.7847 23.0049 23.7185C23.1649 23.6523 23.3103 23.5552 23.4328 23.4328L26.4601 20.4042C26.7928 21.0301 26.9824 21.7433 26.9824 22.5001H26.9837ZM26.5119 16.6228C25.3309 15.813 23.9321 15.3803 22.5001 15.3819C20.613 15.3844 18.8039 16.1352 17.4696 17.4696C16.1352 18.8039 15.3844 20.613 15.3819 22.5001C15.3844 24.3872 16.1352 26.1962 17.4696 27.5306C18.8039 28.865 20.613 29.6157 22.5001 29.6183C24.3872 29.6157 26.1962 28.865 27.5306 27.5306C28.865 26.1962 29.6157 24.3872 29.6183 22.5001C29.62 21.0681 29.1873 19.6692 28.3774 18.4883L32.141 14.7246C33.9234 16.9239 34.895 19.6693 34.8928 22.5001C34.8928 29.3333 29.3333 34.8928 22.5001 34.8928C15.6669 34.8928 10.1074 29.3333 10.1074 22.5001C10.1074 15.6669 15.6669 10.1074 22.5001 10.1074C25.4428 10.1074 28.1483 11.1396 30.2769 12.8592L26.5133 16.6228H26.5119ZM36.5455 36.5455C34.7054 38.3958 32.5165 39.8626 30.1055 40.8611C27.6946 41.8597 25.1096 42.3701 22.5001 42.3628C19.8906 42.3701 17.3055 41.8597 14.8946 40.8611C12.4837 39.8626 10.2948 38.3958 8.45463 36.5455C6.6044 34.7054 5.13757 32.5165 4.13903 30.1055C3.14049 27.6946 2.63008 25.1096 2.63736 22.5001C2.63008 19.8906 3.14049 17.3055 4.13903 14.8946C5.13757 12.4837 6.6044 10.2948 8.45463 8.45463C10.2948 6.6044 12.4837 5.13757 14.8946 4.13903C17.3055 3.14049 19.8906 2.63008 22.5001 2.63736C25.9705 2.63736 29.3333 3.52781 32.3155 5.22827L30.8292 6.71463C30.6935 6.85026 30.589 7.01388 30.5231 7.19405C30.4571 7.37423 30.4313 7.56662 30.4474 7.75781L30.6246 9.86054C28.2034 8.29764 25.3819 7.46841 22.5001 7.47281C14.2133 7.47281 7.47145 14.2146 7.47145 22.5014C7.47145 30.7883 14.2133 37.5301 22.5001 37.5301C30.7869 37.5301 37.5287 30.7883 37.5287 22.5014C37.5287 19.511 36.6505 16.721 35.1396 14.3783L37.2424 14.5555C37.2792 14.5583 37.3174 14.5596 37.3542 14.5596H37.3719L37.4251 14.5569L37.5096 14.5501C37.5553 14.543 37.6007 14.5349 37.646 14.5255C37.69 14.5146 37.7336 14.5023 37.7769 14.4887C37.8201 14.4737 37.8624 14.4564 37.9037 14.4369L37.9528 14.4151L38.0278 14.3728L38.0714 14.3455C38.0979 14.3287 38.1233 14.3105 38.1478 14.291L38.1819 14.2664C38.2181 14.2374 38.2527 14.2064 38.2855 14.1737L39.7719 12.6874C41.4753 15.6773 42.3684 19.0603 42.3628 22.5014C42.3699 25.1107 41.8594 27.6955 40.8609 30.1062C39.8623 32.5168 38.3956 34.7055 36.5455 36.5455Z" fill="#FF6F00"/>
</g>
<defs>
<clipPath id="clip0">
<rect width="45" height="45" fill="white"/>
</clipPath>
</defs>
</svg>
