<svg width="45" height="45" viewBox="0 0 45 45" fill="none" xmlns="http://www.w3.org/2000/svg">
<path d="M43.6705 19.4495C42.9368 19.4495 42.3409 18.8182 42.3409 18.0409C42.3409 12.6491 40.3595 7.58182 36.7609 3.76773C36.5109 3.49652 36.3721 3.14115 36.3721 2.77227C36.3721 2.4034 36.5109 2.04803 36.7609 1.77682C36.8807 1.64695 37.0261 1.54331 37.1879 1.47242C37.3497 1.40153 37.5245 1.36493 37.7011 1.36493C37.8778 1.36493 38.0526 1.40153 38.2144 1.47242C38.3762 1.54331 38.5216 1.64695 38.6414 1.77682C42.7418 6.12 45 11.8977 45 18.0409C45 18.8182 44.4041 19.4495 43.6705 19.4495ZM1.32955 19.4768C0.595909 19.4768 0 18.8455 0 18.0682C0 11.925 2.25818 6.14727 6.35864 1.80409C6.47832 1.67382 6.62375 1.56983 6.78571 1.49869C6.94767 1.42755 7.12265 1.39082 7.29955 1.39082C7.47644 1.39082 7.65142 1.42755 7.81338 1.49869C7.97535 1.56983 8.12077 1.67382 8.24045 1.80409C8.75864 2.35364 8.75864 3.24545 8.24045 3.795C4.64045 7.60909 2.65909 12.6777 2.65909 18.0682C2.65909 18.8455 2.06318 19.4768 1.32955 19.4768ZM22.5109 45C18.5455 45 15.3205 41.9414 15.3205 38.1818C15.3205 37.4291 15.9641 36.8182 16.7591 36.8182C17.5527 36.8182 18.1964 37.4291 18.1964 38.1818C18.1964 40.4386 20.1327 42.2727 22.5109 42.2727C24.8905 42.2727 26.8268 40.4386 26.8268 38.1818C26.8268 37.4291 27.4705 36.8182 28.2641 36.8182C29.0577 36.8182 29.7027 37.4291 29.7027 38.1818C29.7027 41.9414 26.4777 45 22.5109 45ZM37.9418 38.9536H7.09091C6.22687 38.9562 5.39709 38.6159 4.78357 38.0075C4.17005 37.3991 3.82287 36.5722 3.81818 35.7082C3.81818 34.7577 4.23545 33.8577 4.96364 33.24C6.36007 32.0778 7.48385 30.6227 8.25538 28.9779C9.0269 27.333 9.42729 25.5386 9.42818 23.7218V18.5495C9.42818 11.3905 15.2986 5.565 22.515 5.565C29.7327 5.565 35.6032 11.3891 35.6032 18.5495V23.7205C35.6031 25.5339 36.0013 27.3253 36.7694 28.9681C37.5375 30.6109 38.657 32.065 40.0486 33.2277C40.7945 33.8577 41.2118 34.7577 41.2118 35.7082C41.2071 36.5722 40.86 37.3991 40.2464 38.0075C39.6329 38.6159 38.8031 38.9562 37.9391 38.9536H37.9418ZM22.5164 8.34682C16.8464 8.34682 12.2345 12.9232 12.2345 18.5495V23.7205C12.2345 28.2109 10.2505 32.4518 6.79364 35.3523C6.74107 35.3953 6.69866 35.4493 6.66943 35.5106C6.6402 35.5719 6.62487 35.6389 6.62455 35.7068C6.62455 35.9591 6.83727 36.1705 7.09227 36.1705H37.9418C38.0649 36.1698 38.1829 36.1208 38.2703 36.0341C38.3578 35.9474 38.4078 35.8299 38.4095 35.7068C38.4097 35.6396 38.395 35.5733 38.3664 35.5124C38.3379 35.4516 38.2963 35.3978 38.2445 35.355C36.5405 33.9327 35.1695 32.1534 34.2287 30.143C33.2878 28.1326 32.7999 25.9401 32.7995 23.7205V18.5495C32.7995 12.9232 28.1877 8.34682 22.5177 8.34682H22.5164ZM22.5164 8.34682C21.7214 8.34682 21.0777 7.72364 21.0777 6.95591V1.39227C21.0777 0.623182 21.7214 0 22.5164 0C23.31 0 23.9536 0.623182 23.9536 1.39091V6.95591C23.9536 7.72364 23.31 8.34682 22.5164 8.34682Z" fill="#FF6F00"/>
</svg>
