<svg xmlns="http://www.w3.org/2000/svg" width="33" height="33"><path fill="#FFF" d="M30.107 11.53H24.54V1.946A1.94 1.94 0 0022.61 0H1.93A1.94 1.94 0 000 1.946v28.117a1.94 1.94 0 001.929 1.946h19.324c.53.607 1.306.991 2.17.991h6.684C31.702 33 33 31.69 33 30.08V14.45c0-1.61-1.298-2.92-2.893-2.92zM1.93 1.946h20.68v3.067H1.93V1.946zm18.6 28.117H1.93v-3.067h18.6v3.067zm0-15.614v10.6H1.93V6.96h20.683v4.689a2.92 2.92 0 00-2.083 2.801zm10.542 15.632a.97.97 0 01-.964.973h-6.685a.97.97 0 01-.964-.973v-.084h8.613v.084zm0-2.03h-8.613V16.48h8.613v11.57zm0-13.518h-8.613v-.084a.97.97 0 01.964-.973h6.685a.97.97 0 01.964.973v.084zm-14.86-1.272a.963.963 0 00-1.39 0l-3.032 3.125-.66-.725a.963.963 0 00-1.39-.046 1.036 1.036 0 00-.044 1.434l1.354 1.488a.97.97 0 00.717.32.97.97 0 00.696-.297l3.75-3.865a1.036 1.036 0 000-1.434zm13.002 7.077c-.335-.403-.879-.403-1.214 0l-1.576 1.896-.189-.243c-.324-.416-.867-.437-1.213-.047-.346.39-.363 1.044-.039 1.46l.795 1.02a.8.8 0 00.613.326h.014a.792.792 0 00.606-.302l2.203-2.65a1.186 1.186 0 000-1.46z"/></svg>