<svg xmlns="http://www.w3.org/2000/svg" width="33" height="33"><path fill="#3BAEFA" d="M30.577 7.891l1.601-1.6a.967.967 0 00-.603-1.647l-2.969-.25-.25-2.97a.966.966 0 00-1.647-.602l-1.6 1.6A16.412 16.412 0 0016.5 0 16.39 16.39 0 004.833 4.833 16.392 16.392 0 000 16.5a16.39 16.39 0 004.833 11.667A16.392 16.392 0 0016.5 33a16.39 16.39 0 0011.667-4.833A16.392 16.392 0 0033 16.5c0-3.061-.836-6.02-2.423-8.609zM26.748 5.37c.04.47.412.842.882.882l1.709.144-2.313 2.312-2.521-.213-.213-2.521 2.312-2.313.144 1.709zm-6.96 11.13a3.29 3.29 0 01-3.288 3.287 3.29 3.29 0 01-3.287-3.287 3.29 3.29 0 013.287-3.287c.555 0 1.078.139 1.537.383l-2.22 2.22a.966.966 0 101.367 1.368l2.22-2.221c.244.459.383.982.383 1.537zm-.346-4.31a5.192 5.192 0 00-2.942-.91 5.227 5.227 0 00-5.22 5.22 5.227 5.227 0 005.22 5.22 5.227 5.227 0 005.22-5.22 5.19 5.19 0 00-.91-2.942l2.76-2.76a9.045 9.045 0 012.018 5.702c0 5.011-4.077 9.088-9.088 9.088-5.011 0-9.088-4.077-9.088-9.088 0-5.011 4.077-9.088 9.088-9.088 2.158 0 4.142.757 5.703 2.018l-2.76 2.76zM26.8 26.8a14.47 14.47 0 01-10.3 4.266A14.47 14.47 0 016.2 26.8a14.47 14.47 0 01-4.266-10.3A14.47 14.47 0 016.2 6.2a14.47 14.47 0 0110.3-4.266c2.545 0 5.011.653 7.198 1.9l-1.09 1.09a.967.967 0 00-.28.765l.13 1.542A10.955 10.955 0 0016.5 5.48c-6.077 0-11.021 4.944-11.021 11.021 0 6.077 4.944 11.021 11.021 11.021 6.077 0 11.021-4.944 11.021-11.021 0-2.193-.644-4.239-1.752-5.957l1.542.13c.027.002.055.003.082.003h.013l.039-.002.062-.005a2.031 2.031 0 00.1-.018 1.677 1.677 0 00.096-.027.934.934 0 00.093-.038l.036-.016.055-.031.032-.02a.647.647 0 00.056-.04l.025-.018a.958.958 0 00.076-.068l1.09-1.09a14.492 14.492 0 011.9 7.197A14.47 14.47 0 0126.8 26.8z"/></svg>