<svg width="45" height="45" viewBox="0 0 45 45" fill="none" xmlns="http://www.w3.org/2000/svg">
<path d="M41.7845 2.72705C43.4005 2.72705 44.7518 3.94614 44.97 5.54978L44.9932 5.77069L45 5.98887V33.0952C45 34.7316 43.8027 36.1048 42.2182 36.3271L42 36.3502L41.7832 36.3571L29.1355 36.3557V37.7507C29.1355 38.9561 29.9182 39.9911 30.9968 40.328L31.2027 40.3825L31.4032 40.4193L31.5791 40.4384L31.7714 40.4452H34.6841C35.5568 40.4452 36.2632 41.1611 36.2632 42.0407C36.2637 42.4053 36.1394 42.759 35.9109 43.0431C35.6824 43.3272 35.3635 43.5245 35.0073 43.6021L34.8464 43.6293L34.6827 43.6375H10.3173C9.44455 43.6375 8.73818 42.9216 8.73818 42.0421C8.73818 41.2839 9.26182 40.6402 9.99409 40.4807L10.155 40.4534L10.3186 40.4452H13.2273C14.5418 40.4452 15.6464 39.4498 15.8332 38.1543L15.855 37.9498L15.8618 37.7521V36.3543L3.21545 36.3557C2.51083 36.3515 1.82691 36.117 1.26803 35.6878C0.709142 35.2587 0.305966 34.6585 0.12 33.9789L0.0654545 33.758L0.0286364 33.5398L0.00545455 33.3121L0 33.0952V5.98887C0 4.35251 1.19727 2.98069 2.78182 2.75705L3 2.73523L3.21682 2.72705H41.7845V2.72705ZM26.3755 36.3625H18.6232V37.7616L18.6136 38.0848C18.5624 38.9536 18.3064 39.798 17.8664 40.5489L17.6823 40.8407H27.3164L27.1473 40.5734C26.76 39.9194 26.5121 39.1924 26.4191 38.438L26.3877 38.1107L26.3768 37.7507V36.3625H26.3755ZM42.24 27.8534H2.75864V33.0666L2.76545 33.1634C2.77655 33.2411 2.80662 33.3148 2.853 33.3781C2.89938 33.4413 2.96064 33.4922 3.03136 33.5261L3.11182 33.5507L3.21682 33.5616H41.7545L41.85 33.5561C41.9271 33.5438 42 33.5124 42.0619 33.4648C42.1238 33.4171 42.1728 33.3548 42.2045 33.2834L42.2291 33.2016L42.2386 33.0925V27.852L42.24 27.8534ZM22.5 29.243C22.8266 29.2426 23.1399 29.372 23.3711 29.6027C23.6023 29.8333 23.7324 30.1464 23.7327 30.473C23.7331 30.7995 23.6037 31.1129 23.373 31.3441C23.1424 31.5752 22.8293 31.7053 22.5027 31.7057C22.176 31.706 21.8624 31.5766 21.6311 31.3458C21.3998 31.115 21.2697 30.8018 21.2693 30.475C21.269 30.1482 21.3984 29.8347 21.6292 29.6034C21.86 29.3721 22.1732 29.242 22.5 29.2416V29.243ZM3.24273 5.51978L3.14727 5.52523C3.07128 5.53661 2.99927 5.56659 2.93765 5.6125C2.87604 5.65842 2.82672 5.71884 2.79409 5.78841L2.76955 5.86887L2.76 5.97251V25.0552H42.24V5.99978L42.2359 5.90432C42.2212 5.81317 42.1792 5.72863 42.1154 5.6619C42.0516 5.59518 41.969 5.54942 41.8786 5.53069L41.7832 5.52114L3.24273 5.51978ZM22.3405 9.82069C22.6397 9.52249 23.045 9.35506 23.4675 9.35506C23.89 9.35506 24.2953 9.52249 24.5945 9.82069C25.1168 10.3416 25.2055 11.1434 24.8264 11.7734L24.7214 11.9275L24.5945 12.0707L17.3427 19.3034C17.1948 19.4516 17.0191 19.5691 16.8257 19.6493C16.6323 19.7295 16.425 19.7707 16.2157 19.7707C16.0063 19.7707 15.799 19.7295 15.6056 19.6493C15.4122 19.5691 15.2366 19.4516 15.0886 19.3034C14.8364 19.0512 14.6763 18.7215 14.6343 18.3672C14.5922 18.013 14.6706 17.6549 14.8568 17.3507L14.9618 17.198L15.0886 17.0548L22.3405 9.82069ZM25.3377 15.0652C25.5999 14.8045 25.9546 14.6582 26.3243 14.6582C26.6941 14.6582 27.0488 14.8045 27.3109 15.0652C27.7609 15.5152 27.8441 16.2025 27.5264 16.7548L27.4295 16.9021L27.3109 17.0371L24.9791 19.3621C24.7388 19.5985 24.421 19.7399 24.0845 19.7602C23.748 19.7805 23.4156 19.6782 23.1487 19.4723C22.8817 19.2664 22.6984 18.9708 22.6325 18.6402C22.5667 18.3096 22.6228 17.9663 22.7905 17.6739L22.8873 17.5266L23.0059 17.3902L25.3377 15.0652V15.0652Z" fill="#FF6F00"/>
</svg>
