<svg xmlns="http://www.w3.org/2000/svg" width="33" height="33"><path fill="#FFF" d="M22.405 0h-11.81C6.484 0 3.126 3.269 3.003 7.33L3 7.56v17.88c0 4.09 3.281 7.434 7.363 7.557l.232.003h11.81c4.111 0 7.469-3.269 7.592-7.33l.003-.23V7.56C30 3.47 26.719.127 22.637.004L22.405 0zm0 1.975c3.017 0 5.486 2.391 5.597 5.376l.004.21v17.878c0 3.012-2.4 5.472-5.391 5.582l-.21.004h-11.81c-3.017 0-5.486-2.391-5.597-5.376l-.004-.21V7.561c0-3.012 2.4-5.472 5.391-5.582l.21-.004h11.81zM16.6 24.126a1.971 1.971 0 11.002 3.943 1.971 1.971 0 01-.002-3.943zM9.341 13.278a.994.994 0 00-.99.88l-.007.107v5.127c0 .544.445.988.997.988a.994.994 0 00.992-.88l.005-.108v-5.127a.992.992 0 00-.997-.987zm4.883-5.916a.994.994 0 00-.991.88l-.006.107v11.043c0 .544.445.988.997.988a.994.994 0 00.99-.88l.007-.108V8.35a.992.992 0 00-.997-.987zm4.816 3.878a.994.994 0 00-.991.88l-.006.107v7.1c0 .543.445.987.997.987a.994.994 0 00.991-.88l.006-.108v-7.099a.992.992 0 00-.997-.987zm4.75 3.944a.994.994 0 00-.99.88l-.006.107v3.155c0 .544.445.988.997.988a.994.994 0 00.99-.88l.007-.108v-3.155a.992.992 0 00-.997-.987z"/></svg>