<svg xmlns="http://www.w3.org/2000/svg" width="33" height="33"><path fill="#FFF" d="M32.025 14.263c-.538 0-.975-.463-.975-1.033 0-3.954-1.453-7.67-4.092-10.467a1.077 1.077 0 010-1.46.938.938 0 011.379 0C31.344 4.488 33 8.725 33 13.23c0 .57-.437 1.033-.975 1.033zm-31.05.02C.437 14.283 0 13.82 0 13.25 0 8.745 1.656 4.508 4.663 1.323a.937.937 0 011.38 0c.38.403.38 1.057 0 1.46C3.403 5.58 1.95 9.297 1.95 13.25c0 .57-.437 1.033-.975 1.033zM16.508 33c-2.908 0-5.273-2.243-5.273-5 0-.552.472-1 1.055-1 .582 0 1.054.448 1.054 1 0 1.655 1.42 3 3.164 3 1.745 0 3.165-1.345 3.165-3 0-.552.472-1 1.054-1 .582 0 1.055.448 1.055 1 0 2.757-2.365 5-5.274 5zm11.316-4.434H5.2a2.393 2.393 0 01-2.4-2.38c0-.697.306-1.357.84-1.81a9.087 9.087 0 003.274-6.98v-3.793c0-5.25 4.305-9.522 9.597-9.522 5.293 0 9.598 4.271 9.598 9.522v3.792a9.085 9.085 0 003.26 6.972c.547.462.853 1.122.853 1.819a2.393 2.393 0 01-2.4 2.38zM16.512 6.121c-4.158 0-7.54 3.356-7.54 7.482v3.792c0 3.293-1.455 6.403-3.99 8.53a.338.338 0 00-.124.26c0 .185.156.34.343.34h22.623a.345.345 0 00.343-.34.334.334 0 00-.121-.258 11.116 11.116 0 01-3.993-8.532v-3.792c0-4.126-3.382-7.482-7.54-7.482zm0 0c-.583 0-1.055-.457-1.055-1.02v-4.08c0-.564.472-1.021 1.055-1.021.582 0 1.054.457 1.054 1.02v4.081c0 .563-.472 1.02-1.054 1.02z"/></svg>