<svg xmlns="http://www.w3.org/2000/svg" width="33" height="33"><path fill="#3BAEFA" d="M16.5 27.677c6.173 0 11.177-4.766 11.177-10.645S22.673 6.387 16.5 6.387 5.323 11.153 5.323 17.032C5.329 22.91 10.33 27.671 16.5 27.677zm0-18.924c4.801 0 8.694 3.707 8.694 8.28 0 4.572-3.893 8.279-8.694 8.279-4.801 0-8.694-3.707-8.694-8.28.006-4.57 3.895-8.274 8.694-8.28zM16.47 0a1.18 1.18 0 000 2.361 14.226 14.226 0 11-9.814 3.984l-.08.61a1.18 1.18 0 102.342.308l.459-3.512a1.239 1.239 0 00-1.018-1.324l-3.512-.459a1.18 1.18 0 10-.305 2.34l.735.097A16.5 16.5 0 1016.47 0zm-.122 17.35l2.747 2.54a1.372 1.372 0 001.816-.015c.5-.462.507-1.21.016-1.68l-2.368-2.19v-3.097c0-.662-.58-1.198-1.296-1.198-.715 0-1.295.536-1.295 1.198v3.594c.002.318.138.622.38.848z"/></svg>