<svg xmlns="http://www.w3.org/2000/svg" width="33" height="33"><path fill="#FFF" d="M.967 31h31.066c.534 0 .967-.448.967-1V2c0-.552-.433-1-.967-1H.967C.433 1 0 1.448 0 2v28c0 .552.433 1 .967 1zm.967-2V7h29.132v22H1.934zM31.066 3v2H1.934V3h29.132zM12.257 23.708c-.52 0-.943.397-.943.886v.885H9.43V13.083h1.885v.886c0 .489.422.885.943.885.52 0 .943-.396.943-.885v-1.771c0-.49-.422-.886-.943-.886H8.486c-.521 0-.943.397-.943.886v14.167c0 .489.422.885.943.885h3.771c.52 0 .943-.396.943-.885v-1.771c0-.49-.422-.886-.943-.886zm15.033-6.77h-6.966v-2.812c0-.77-.937-1.213-1.593-.75L10.77 19a.906.906 0 000 1.5l7.962 5.624c.65.46 1.593.027 1.593-.75v-2.812h6.966c.55 0 .996-.42.996-.937v-3.75c0-.517-.446-.937-.996-.937zm-.995 3.75h-6.967c-.55 0-.995.42-.995.937V23.5l-5.308-3.75L18.333 16v1.876c0 .517.446.937.995.937h6.967v1.875z"/></svg>