<svg xmlns="http://www.w3.org/2000/svg" width="33" height="33"><path fill="#FFF" d="M30.1 20.187V2H2.9v18.187L0 25.96V31h33v-5.04l-2.9-5.773zM4.834 3.925h23.332V19.45H4.834V3.925zm-.37 17.451h24.071l1.934 3.85H2.53l1.934-3.85zm11.07 7.7h-13.6V27.15h13.6v1.925zm15.532 0h-13.6V27.15h13.6v1.925zM16.5 6.077c-2.597 0-5.039.977-6.875 2.75L11 10.156c1.47-1.419 3.422-2.2 5.5-2.2s4.03.781 5.5 2.2l1.375-1.328c-1.836-1.773-4.278-2.75-6.875-2.75zm-4.125 5.381l1.375 1.416a3.815 3.815 0 015.5 0l1.375-1.416a5.722 5.722 0 00-8.25 0zM16.5 13.78c-1.01 0-1.833.813-1.833 1.813s.822 1.812 1.833 1.812c1.01 0 1.833-.813 1.833-1.812 0-1-.822-1.813-1.833-1.813z"/></svg>