<svg xmlns="http://www.w3.org/2000/svg" width="33" height="33"><path fill="#3BAEFA" d="M30.642 2c1.185 0 2.176.894 2.336 2.07l.017.162.005.16V24.27c0 1.2-.878 2.207-2.04 2.37l-.16.017-.159.005-9.275-.001v1.023c0 .884.574 1.643 1.365 1.89l.151.04.147.027.129.014.141.005h2.136c.64 0 1.158.525 1.158 1.17a1.17 1.17 0 01-.921 1.145l-.118.02-.12.006H7.566c-.64 0-1.158-.525-1.158-1.17 0-.556.384-1.028.921-1.145l.118-.02.12-.006H9.7c.964 0 1.774-.73 1.911-1.68l.016-.15.005-.145V26.66l-9.274.001a2.368 2.368 0 01-2.27-1.743l-.04-.162-.027-.16-.017-.167L0 24.27V4.392c0-1.2.878-2.206 2.04-2.37l.16-.016L2.359 2h28.283zm-11.3 24.666h-5.685v1.026l-.007.237a4.045 4.045 0 01-.548 1.807l-.135.214h7.065l-.124-.196a4.044 4.044 0 01-.534-1.566l-.023-.24-.008-.264v-1.018zm11.634-6.24H2.023v3.823l.005.071a.35.35 0 00.195.266l.059.018.077.008H30.62l.07-.004a.344.344 0 00.26-.2l.018-.06.007-.08v-3.843zM16.5 21.445a.903.903 0 11.002 1.806.903.903 0 01-.002-1.807zM2.378 4.048l-.07.004a.342.342 0 00-.259.193l-.018.059-.007.076v13.994h28.952V4.4l-.003-.07a.334.334 0 00-.262-.274l-.07-.007-28.263-.001zm14.005 3.154a1.171 1.171 0 011.653 0c.383.382.448.97.17 1.432l-.077.113-.093.105-5.318 5.304a1.168 1.168 0 01-1.653 0 1.165 1.165 0 01-.17-1.432l.077-.112.093-.105 5.318-5.305zm2.198 3.846a1.026 1.026 0 011.447 0c.33.33.391.834.158 1.239l-.071.108-.087.099-1.71 1.705a1.023 1.023 0 01-1.605-1.238l.071-.108.087-.1 1.71-1.705z"/></svg>