<svg width="130" height="130" viewBox="0 0 130 130" fill="none" xmlns="http://www.w3.org/2000/svg">
<g filter="url(#filter0_d)">
<circle cx="65" cy="64" r="50" fill="white"/>
</g>
<path d="M46.2919 39C42.818 39 40 41.6855 40 45.0014C40 48.3173 42.8158 51.065 46.2872 51.065C49.7586 51.065 52.5791 48.3173 52.5791 45.0014C52.5791 41.6878 49.7657 39 46.2919 39ZM76.9885 54.9091C71.7051 54.9091 68.6821 57.5465 67.2321 60.1692H67.0787V55.6149H56.6667V89H67.5158V72.4739C67.5158 68.1194 67.8602 63.9112 73.5054 63.9112C79.0697 63.9112 79.1509 68.8764 79.1509 72.7491V89H89.986H90V70.6628C90 61.6901 87.9789 54.9091 76.9885 54.9091ZM40.865 55.6149V89H51.7234V55.6149H40.865Z" fill="#002276"/>
<defs>
<filter id="filter0_d" x="0" y="0" width="130" height="130" filterUnits="userSpaceOnUse" color-interpolation-filters="sRGB">
<feFlood flood-opacity="0" result="BackgroundImageFix"/>
<feColorMatrix in="SourceAlpha" type="matrix" values="0 0 0 0 0 0 0 0 0 0 0 0 0 0 0 0 0 0 127 0"/>
<feOffset dy="1"/>
<feGaussianBlur stdDeviation="7.5"/>
<feColorMatrix type="matrix" values="0 0 0 0 0 0 0 0 0 0 0 0 0 0 0 0 0 0 0.25 0"/>
<feBlend mode="normal" in2="BackgroundImageFix" result="effect1_dropShadow"/>
<feBlend mode="normal" in="SourceGraphic" in2="effect1_dropShadow" result="shape"/>
</filter>
</defs>
</svg>
