<svg width="292" height="130" viewBox="0 0 292 130" fill="none" xmlns="http://www.w3.org/2000/svg">
<g filter="url(#filter0_d)">
<rect x="15" y="15" width="262" height="100" rx="50" fill="white"/>
</g>
<path d="M60 37C44.6 37 32 49.6 32 65C32 80.4 44.6 93 60 93C75.4 93 88 80.4 88 65C88 49.6 75.4 37 60 37ZM60 45.4C64.76 45.4 68.4 49.04 68.4 53.8C68.4 58.56 64.76 62.2 60 62.2C55.24 62.2 51.6 58.56 51.6 53.8C51.6 49.04 55.24 45.4 60 45.4ZM60 85.16C53 85.16 46.84 81.5201 43.2 76.2C43.2 70.6 54.4 67.52 60 67.52C65.6 67.52 76.8 70.6 76.8 76.2C73.16 81.52 67 85.16 60 85.16Z" fill="#002276"/>
<path d="M114.195 76.74H126.515V84H104.79V45.39H114.195V76.74ZM146.071 84.44C143.064 84.44 140.351 83.7983 137.931 82.515C135.547 81.2317 133.659 79.3983 132.266 77.015C130.909 74.6317 130.231 71.845 130.231 68.655C130.231 65.5017 130.927 62.7333 132.321 60.35C133.714 57.93 135.621 56.0783 138.041 54.795C140.461 53.5117 143.174 52.87 146.181 52.87C149.187 52.87 151.901 53.5117 154.321 54.795C156.741 56.0783 158.647 57.93 160.041 60.35C161.434 62.7333 162.131 65.5017 162.131 68.655C162.131 71.8083 161.416 74.595 159.986 77.015C158.592 79.3983 156.667 81.2317 154.211 82.515C151.791 83.7983 149.077 84.44 146.071 84.44ZM146.071 76.3C147.867 76.3 149.389 75.64 150.636 74.32C151.919 73 152.561 71.1117 152.561 68.655C152.561 66.1983 151.937 64.31 150.691 62.99C149.481 61.67 147.977 61.01 146.181 61.01C144.347 61.01 142.826 61.67 141.616 62.99C140.406 64.2733 139.801 66.1617 139.801 68.655C139.801 71.1117 140.387 73 141.561 74.32C142.771 75.64 144.274 76.3 146.071 76.3ZM179.88 52.87C182.043 52.87 183.932 53.31 185.545 54.19C187.195 55.07 188.46 56.225 189.34 57.655V53.31H198.745V83.945C198.745 86.7683 198.177 89.3167 197.04 91.59C195.94 93.9 194.235 95.7333 191.925 97.09C189.652 98.4467 186.81 99.125 183.4 99.125C178.853 99.125 175.168 98.0433 172.345 95.88C169.522 93.7533 167.908 90.8567 167.505 87.19H176.8C177.093 88.3633 177.79 89.28 178.89 89.94C179.99 90.6367 181.347 90.985 182.96 90.985C184.903 90.985 186.443 90.4167 187.58 89.28C188.753 88.18 189.34 86.4017 189.34 83.945V79.6C188.423 81.03 187.158 82.2033 185.545 83.12C183.932 84 182.043 84.44 179.88 84.44C177.35 84.44 175.058 83.7983 173.005 82.515C170.952 81.195 169.32 79.3433 168.11 76.96C166.937 74.54 166.35 71.7533 166.35 68.6C166.35 65.4467 166.937 62.6783 168.11 60.295C169.32 57.9117 170.952 56.0783 173.005 54.795C175.058 53.5117 177.35 52.87 179.88 52.87ZM189.34 68.655C189.34 66.3083 188.68 64.4567 187.36 63.1C186.077 61.7433 184.5 61.065 182.63 61.065C180.76 61.065 179.165 61.7433 177.845 63.1C176.562 64.42 175.92 66.2533 175.92 68.6C175.92 70.9467 176.562 72.8167 177.845 74.21C179.165 75.5667 180.76 76.245 182.63 76.245C184.5 76.245 186.077 75.5667 187.36 74.21C188.68 72.8533 189.34 71.0017 189.34 68.655ZM211.379 50.12C209.729 50.12 208.372 49.6433 207.309 48.69C206.282 47.7 205.769 46.49 205.769 45.06C205.769 43.5933 206.282 42.3833 207.309 41.43C208.372 40.44 209.729 39.945 211.379 39.945C212.992 39.945 214.312 40.44 215.339 41.43C216.403 42.3833 216.934 43.5933 216.934 45.06C216.934 46.49 216.403 47.7 215.339 48.69C214.312 49.6433 212.992 50.12 211.379 50.12ZM216.054 53.31V84H206.649V53.31H216.054ZM242.67 52.98C246.263 52.98 249.123 54.1533 251.25 56.5C253.413 58.81 254.495 62 254.495 66.07V84H245.145V67.335C245.145 65.2817 244.613 63.6867 243.55 62.55C242.487 61.4133 241.057 60.845 239.26 60.845C237.463 60.845 236.033 61.4133 234.97 62.55C233.907 63.6867 233.375 65.2817 233.375 67.335V84H223.97V53.31H233.375V57.38C234.328 56.0233 235.612 54.96 237.225 54.19C238.838 53.3833 240.653 52.98 242.67 52.98Z" fill="#002276"/>
<defs>
<filter id="filter0_d" x="0" y="0" width="292" height="130" filterUnits="userSpaceOnUse" color-interpolation-filters="sRGB">
<feFlood flood-opacity="0" result="BackgroundImageFix"/>
<feColorMatrix in="SourceAlpha" type="matrix" values="0 0 0 0 0 0 0 0 0 0 0 0 0 0 0 0 0 0 127 0"/>
<feOffset/>
<feGaussianBlur stdDeviation="7.5"/>
<feColorMatrix type="matrix" values="0 0 0 0 0 0 0 0 0 0 0 0 0 0 0 0 0 0 0.25 0"/>
<feBlend mode="normal" in2="BackgroundImageFix" result="effect1_dropShadow"/>
<feBlend mode="normal" in="SourceGraphic" in2="effect1_dropShadow" result="shape"/>
</filter>
</defs>
</svg>
