<svg height="512" viewBox="0 0 64 64" width="512" xmlns="http://www.w3.org/2000/svg"><g id="Solution"><path d="m43 45v-5.544a5.984 5.984 0 0 1 -5.236-4.416l-.764.76v5.2a5.006 5.006 0 0 0 5 5 1 1 0 0 0 1-1z"/><path d="m24.011 31.886a1 1 0 0 1 1.156.187l1.833 1.833v-.906a5 5 0 0 1 10-.022l.905-.905a1 1 0 0 1 1.7.852 4 4 0 1 0 3.4-3.4 1 1 0 0 1 -.852-1.7l6.363-6.373-4.482-4.481a6 6 0 1 1 -8-8l-4.494-4.477-6.373 6.363a1 1 0 0 1 -1.7-.852 4 4 0 0 0 -1.128-3.388 4.1 4.1 0 0 0 -5.656 0 4 4 0 0 0 3.392 6.783 1 1 0 0 1 .852 1.7l-6.364 6.36 6.365 6.373a1 1 0 0 1 -.853 1.7 4 4 0 1 0 3.4 3.4 1 1 0 0 1 .536-1.047z"/><path d="m35.316 58.131 1-2a7.026 7.026 0 0 0 0-6.26l-.366-.734a9.05 9.05 0 0 1 -.95-4.026v-12.111a3 3 0 0 0 -6 0v14a1 1 0 0 1 -2 0v-10.266l-1.694-1.693a5.989 5.989 0 0 1 -5.791 4.442c-.106 0-.209-.01-.314-.015l-2.446 7.04a3.036 3.036 0 0 0 .088 2.744.9.9 0 0 1 .048.1l3.509 8.304a5.062 5.062 0 0 1 .6 2.384v.96h14v-1.528a3.014 3.014 0 0 1 .316-1.341z"/><path d="m61 23h-6a1 1 0 0 1 0-2h6a1 1 0 0 1 0 2z"/><path d="m53.919 11.5a1 1 0 0 1 -.5-1.866l5.2-3a1 1 0 0 1 1 1.732l-5.2 3a.992.992 0 0 1 -.5.134z"/><path d="m59.114 37.5a.992.992 0 0 1 -.5-.134l-5.2-3a1 1 0 1 1 1-1.732l5.2 3a1 1 0 0 1 -.5 1.866z"/><path d="m9 23h-6a1 1 0 0 1 0-2h6a1 1 0 0 1 0 2z"/><path d="m10.081 11.5a.992.992 0 0 1 -.5-.134l-5.2-3a1 1 0 0 1 1-1.732l5.2 3a1 1 0 0 1 -.5 1.866z"/><path d="m4.886 37.5a1 1 0 0 1 -.5-1.866l5.2-3a1 1 0 1 1 1 1.732l-5.2 3a.992.992 0 0 1 -.5.134z"/></g></svg>