<svg width="512" height="512" viewBox="0 0 512 512" fill="none" xmlns="http://www.w3.org/2000/svg">
<path d="M344 360V315.648C334.241 314.755 324.992 310.888 317.501 304.57C310.011 298.253 304.639 289.788 302.112 280.32L296 286.4V328C296.013 338.605 300.231 348.772 307.73 356.271C315.228 363.769 325.395 367.988 336 368C338.122 368 340.157 367.157 341.657 365.657C343.157 364.157 344 362.122 344 360V360Z" fill="#FF7B1E"/>
<path d="M192.088 255.088C193.591 254.334 195.294 254.072 196.954 254.341C198.614 254.609 200.147 255.394 201.336 256.584L216 271.248V264C215.988 258.747 217.012 253.544 219.011 248.686C221.011 243.829 223.947 239.413 227.653 235.69C235.138 228.172 245.303 223.935 255.912 223.912C266.521 223.889 276.704 228.081 284.222 235.566C291.74 243.051 295.977 253.215 296 263.824L303.24 256.584C304.427 255.384 305.963 254.589 307.629 254.315C309.294 254.04 311.004 254.3 312.514 255.056C314.023 255.813 315.254 257.027 316.031 258.526C316.808 260.025 317.091 261.731 316.84 263.4C315.899 270.047 317.073 276.821 320.194 282.763C323.315 288.706 328.226 293.517 334.232 296.515C340.238 299.513 347.035 300.547 353.66 299.47C360.286 298.392 366.405 295.258 371.152 290.512C375.898 285.765 379.032 279.646 380.109 273.021C381.187 266.395 380.153 259.598 377.155 253.592C374.157 247.586 369.346 242.675 363.403 239.554C357.46 236.433 350.686 235.259 344.04 236.2C342.371 236.452 340.664 236.169 339.166 235.391C337.667 234.614 336.453 233.383 335.696 231.874C334.94 230.365 334.68 228.655 334.955 226.989C335.229 225.323 336.023 223.787 337.224 222.6L388.128 171.616L352.272 135.768C348.963 142.698 344.039 148.732 337.914 153.364C331.79 157.997 324.644 161.092 317.075 162.391C309.507 163.689 301.737 163.153 294.419 160.827C287.1 158.501 280.447 154.453 275.017 149.023C269.587 143.593 265.539 136.94 263.213 129.621C260.887 122.303 260.351 114.533 261.649 106.965C262.948 99.3965 266.043 92.25 270.676 86.1256C275.308 80.0012 281.343 75.0776 288.272 71.7681L252.32 35.9521L201.336 86.8562C200.149 88.0567 198.613 88.8511 196.947 89.1255C195.281 89.3999 193.571 89.1403 192.062 88.3839C190.553 87.6275 189.322 86.4131 188.545 84.9144C187.767 83.4156 187.484 81.7095 187.736 80.0401C188.434 75.1321 187.982 70.1289 186.416 65.4253C184.85 60.7217 182.213 56.4462 178.712 52.9361C172.613 47.1257 164.512 43.8847 156.088 43.8847C147.664 43.8847 139.563 47.1257 133.464 52.9361C128.734 57.6875 125.616 63.8043 124.55 70.4231C123.484 77.0419 124.523 83.8284 127.522 89.8246C130.52 95.8208 135.326 100.724 141.262 103.841C147.197 106.959 153.961 108.134 160.6 107.2C162.269 106.949 163.975 107.232 165.474 108.009C166.973 108.786 168.187 110.017 168.944 111.526C169.7 113.036 169.96 114.746 169.685 116.411C169.411 118.077 168.616 119.613 167.416 120.8L116.504 171.68L167.424 222.664C168.625 223.851 169.42 225.389 169.695 227.055C169.969 228.722 169.709 230.433 168.951 231.943C168.194 233.452 166.978 234.684 165.478 235.46C163.977 236.236 162.27 236.518 160.6 236.264C153.953 235.323 147.179 236.497 141.237 239.618C135.294 242.739 130.483 247.65 127.485 253.656C124.487 259.662 123.453 266.459 124.531 273.085C125.608 279.71 128.742 285.829 133.488 290.576C138.235 295.322 144.354 298.456 150.98 299.534C157.605 300.611 164.402 299.577 170.408 296.579C176.414 293.581 181.325 288.77 184.446 282.827C187.567 276.885 188.741 270.111 187.8 263.464C187.538 261.794 187.812 260.084 188.582 258.579C189.353 257.074 190.58 255.852 192.088 255.088V255.088Z" fill="#FF7B1E"/>
<path d="M282.528 465.048L290.528 449.048C294.399 441.268 296.414 432.697 296.414 424.008C296.414 415.319 294.399 406.748 290.528 398.968L287.6 393.096C282.614 383.091 280.013 372.067 280 360.888V264C280 257.635 277.471 251.53 272.97 247.029C268.47 242.529 262.365 240 256 240C249.635 240 243.53 242.529 239.029 247.029C234.528 251.53 232 257.635 232 264V376C232 378.122 231.157 380.157 229.657 381.657C228.156 383.157 226.122 384 224 384C221.878 384 219.843 383.157 218.343 381.657C216.843 380.157 216 378.122 216 376V293.872L202.448 280.328C199.721 290.528 193.7 299.542 185.322 305.968C176.944 312.394 166.679 315.873 156.12 315.864C155.272 315.864 154.448 315.784 153.608 315.744L134.04 372.064C132.425 375.521 131.647 379.31 131.769 383.124C131.891 386.938 132.91 390.669 134.744 394.016C134.888 394.275 135.016 394.542 135.128 394.816L163.2 461.248C166.343 467.114 167.991 473.665 168 480.32V488H280V475.776C280.003 472.053 280.868 468.381 282.528 465.048V465.048Z" fill="#FF7B1E"/>
<path d="M488 184H440C437.878 184 435.843 183.157 434.343 181.657C432.843 180.157 432 178.122 432 176C432 173.878 432.843 171.843 434.343 170.343C435.843 168.843 437.878 168 440 168H488C490.122 168 492.157 168.843 493.657 170.343C495.157 171.843 496 173.878 496 176C496 178.122 495.157 180.157 493.657 181.657C492.157 183.157 490.122 184 488 184Z" fill="#FF7B1E"/>
<path d="M431.352 92.0003C429.591 92.0003 427.879 91.4191 426.482 90.3471C425.085 89.275 424.081 87.7719 423.625 86.0709C423.169 84.3699 423.287 82.5661 423.961 80.9391C424.635 79.3121 425.827 77.9529 427.352 77.0723L468.952 53.0723C470.788 52.0282 472.963 51.7528 475.002 52.3064C477.041 52.8599 478.778 54.1973 479.834 56.0268C480.89 57.8563 481.18 60.0293 480.64 62.0717C480.1 64.1141 478.774 65.8599 476.952 66.9283L435.352 90.9283C434.137 91.6334 432.757 92.0033 431.352 92.0003V92.0003Z" fill="#FF7B1E"/>
<path d="M472.912 300C471.507 300.003 470.127 299.633 468.912 298.928L427.312 274.928C426.395 274.407 425.59 273.709 424.944 272.875C424.297 272.041 423.822 271.088 423.546 270.07C423.269 269.052 423.197 267.989 423.333 266.942C423.469 265.896 423.81 264.887 424.338 263.974C424.865 263.06 425.569 262.26 426.407 261.619C427.245 260.978 428.201 260.509 429.221 260.239C430.241 259.97 431.305 259.904 432.35 260.047C433.395 260.19 434.402 260.539 435.312 261.072L476.912 285.072C478.437 285.953 479.629 287.312 480.303 288.939C480.977 290.566 481.095 292.37 480.639 294.071C480.183 295.772 479.179 297.275 477.782 298.347C476.385 299.419 474.673 300 472.912 300V300Z" fill="#FF7B1E"/>
<path d="M72 184H24C21.8783 184 19.8434 183.157 18.3431 181.657C16.8429 180.157 16 178.122 16 176C16 173.878 16.8429 171.843 18.3431 170.343C19.8434 168.843 21.8783 168 24 168H72C74.1217 168 76.1566 168.843 77.6569 170.343C79.1571 171.843 80 173.878 80 176C80 178.122 79.1571 180.157 77.6569 181.657C76.1566 183.157 74.1217 184 72 184Z" fill="#FF7B1E"/>
<path d="M80.6481 92.0003C79.2433 92.0033 77.863 91.6334 76.6481 90.9283L35.0481 66.9283C33.2256 65.8599 31.8997 64.1141 31.3598 62.0717C30.8198 60.0293 31.1096 57.8563 32.1659 56.0268C33.2222 54.1973 34.9592 52.8599 36.9979 52.3064C39.0367 51.7528 41.2116 52.0282 43.0481 53.0723L84.6481 77.0723C86.1731 77.9529 87.365 79.3121 88.0388 80.9391C88.7127 82.5661 88.8309 84.3699 88.3751 86.0709C87.9193 87.7719 86.915 89.275 85.5179 90.3471C84.1208 91.4191 82.4091 92.0003 80.6481 92.0003Z" fill="#FF7B1E"/>
<path d="M39.088 300C37.327 300 35.6152 299.419 34.2182 298.347C32.8211 297.275 31.8168 295.772 31.361 294.071C30.9052 292.37 31.0234 290.566 31.6973 288.939C32.3711 287.312 33.563 285.953 35.088 285.072L76.688 261.072C77.5982 260.539 78.6049 260.19 79.6502 260.047C80.6955 259.904 81.7588 259.97 82.7788 260.239C83.7988 260.509 84.7554 260.978 85.5935 261.619C86.4316 262.26 87.1346 263.06 87.6621 263.974C88.1897 264.887 88.5313 265.896 88.6673 266.942C88.8032 267.989 88.7309 269.052 88.4545 270.07C88.1781 271.088 87.703 272.041 87.0566 272.875C86.4102 273.709 85.6052 274.407 84.688 274.928L43.088 298.928C41.8731 299.633 40.4927 300.003 39.088 300Z" fill="#FF7B1E"/>
</svg>
