<svg width="512" height="512" viewBox="0 0 512 512" fill="none" xmlns="http://www.w3.org/2000/svg">
<path d="M432 24H320C315.584 24 312 27.592 312 32V64H296C287.176 64 280 71.176 280 80C280 88.824 287.176 96 296 96H312V136H344C344 118.352 358.352 104 376 104C393.648 104 408 118.352 408 136H432C436.416 136 440 132.408 440 128V32C440 27.592 436.416 24 432 24Z" fill="#FF7B1E"/>
<path d="M216 488C235.312 488 251.472 474.232 255.192 456H176.808C180.528 474.232 196.688 488 216 488Z" fill="#FF7B1E"/>
<path d="M152 168C169.648 168 184 182.352 184 200H216V176C198.352 176 184 161.648 184 144C184 126.352 198.352 112 216 112V72H210.552C137.704 72 77.8081 128.512 72.4001 200H120C120 182.352 134.352 168 152 168Z" fill="#FF7B1E"/>
<path d="M160 376H216V312C198.352 312 184 297.648 184 280C184 262.352 198.352 248 216 248V216H168V200C168 191.176 160.824 184 152 184C143.176 184 136 191.176 136 200V216H72.1121C73.6401 255.664 91.9361 292.512 122.816 317.784L160 348.208V376Z" fill="#FF7B1E"/>
<path d="M312 200C312 191.176 304.824 184 296 184C287.176 184 280 191.176 280 200V216H232V264H216C207.176 264 200 271.176 200 280C200 288.824 207.176 296 216 296H232V376H272V348.208L309.184 317.784C340.064 292.512 358.352 255.664 359.888 216H312V200Z" fill="#FF7B1E"/>
<path d="M264 424H168C163.584 424 160 427.592 160 432C160 436.408 163.584 440 168 440H264C268.416 440 272 436.408 272 432C272 427.592 268.416 424 264 424Z" fill="#FF7B1E"/>
<path d="M280 392H152C147.584 392 144 395.592 144 400C144 404.408 147.584 408 152 408H168H264H280C284.416 408 288 404.408 288 400C288 395.592 284.416 392 280 392Z" fill="#FF7B1E"/>
</svg>
