<?xml version="1.0" encoding="UTF-8"?>
<svg width="1995px" height="667px" viewBox="0 0 1995 667" version="1.1" xmlns="http://www.w3.org/2000/svg" xmlns:xlink="http://www.w3.org/1999/xlink">
    <title>badge-app-store-de</title>
    <g id="Web-App-Badge" stroke="none" stroke-width="1" fill="none" fill-rule="evenodd">
        <g id="badge-app-store-de" fill-rule="nonzero">
            <path d="M1835.57812,0 L158.910156,0 C152.800781,0 146.761719,0 140.667969,0.03125 C135.5625,0.0664062 130.5,0.160156 125.347656,0.246094 C114.15625,0.375 102.996094,1.359375 91.953125,3.195312 C80.925781,5.058594 70.246094,8.585938 60.269531,13.648438 C50.308594,18.75 41.207031,25.382812 33.292969,33.304688 C25.339844,41.199219 18.707031,50.328125 13.65625,60.332031 C8.589844,70.320312 5.078125,81.023438 3.238281,92.070312 C1.386719,103.105469 0.386719,114.265625 0.25,125.453125 C0.0976562,130.566406 0.0820312,135.699219 0,140.808594 L0,526.242188 C0.0820312,531.417969 0.0976562,536.433594 0.25,541.613281 C0.386719,552.800781 1.386719,563.957031 3.238281,574.996094 C5.074219,586.046875 8.582031,596.757812 13.65625,606.746094 C18.703125,616.726562 25.339844,625.8125 33.292969,633.664062 C41.175781,641.621094 50.285156,648.257812 60.269531,653.320312 C70.246094,658.398438 80.921875,661.941406 91.953125,663.84375 C102.996094,665.65625 114.160156,666.640625 125.347656,666.785156 C130.5,666.902344 135.5625,666.96875 140.667969,666.96875 C146.761719,667 152.800781,667 158.910156,667 L1835.57812,667 C1841.56641,667 1847.65625,667 1853.64453,666.96875 C1858.72266,666.96875 1863.93359,666.902344 1869.01172,666.785156 C1880.18359,666.652344 1891.32422,665.660156 1902.34375,663.84375 C1913.40625,661.929688 1924.125,658.382812 1934.14453,653.320312 C1944.125,648.257812 1953.22266,641.617188 1961.09766,633.664062 C1969.03516,625.78125 1975.68359,616.699219 1980.79688,606.746094 C1985.82812,596.75 1989.30859,586.042969 1991.11328,574.996094 C1992.97266,563.957031 1994.00391,552.800781 1994.20703,541.613281 C1994.26953,536.433594 1994.26953,531.417969 1994.26953,526.242188 C1994.40234,520.183594 1994.40234,514.15625 1994.40234,508 L1994.40234,159.015625 C1994.40234,152.910156 1994.40234,146.847656 1994.26953,140.808594 C1994.26953,135.699219 1994.26953,130.566406 1994.20703,125.453125 C1994.00391,114.265625 1992.97266,103.105469 1991.11328,92.070312 C1989.30078,81.03125 1985.82422,70.328125 1980.79688,60.332031 C1970.50391,40.273438 1954.19141,23.945312 1934.14453,13.648438 C1924.125,8.597656 1913.40625,5.074219 1902.34375,3.1875 C1891.32812,1.355469 1880.18359,0.363281 1869.01172,0.246094 C1863.93359,0.160156 1858.72266,0.0625 1853.64453,0.03125 C1847.65625,0 1841.56641,0 1835.57812,0 Z" id="Path" fill="#A6A6A6"></path>
            <path d="M140.746094,652.410156 C135.667969,652.410156 130.714844,652.347656 125.675781,652.230469 C115.238281,652.097656 104.828125,651.183594 94.519531,649.511719 C84.917969,647.855469 75.609375,644.773438 66.910156,640.378906 C58.292969,636.011719 50.433594,630.285156 43.628906,623.421875 C36.730469,616.640625 30.980469,608.773438 26.621094,600.136719 C22.207031,591.441406 19.15625,582.125 17.566406,572.503906 C15.855469,562.167969 14.925781,551.714844 14.792969,541.238281 C14.6875,537.722656 14.550781,526.011719 14.550781,526.011719 L14.550781,140.808594 C14.550781,140.808594 14.699219,129.277344 14.796875,125.890625 C14.921875,115.433594 15.84375,104.996094 17.550781,94.675781 C19.144531,85.03125 22.199219,75.683594 26.609375,66.960938 C30.957031,58.324219 36.671875,50.457031 43.53125,43.652344 C50.378906,36.777344 58.269531,31.027344 66.902344,26.601562 C75.582031,22.214844 84.871094,19.15625 94.457031,17.53125 C104.796875,15.835938 115.246094,14.925781 125.71875,14.792969 L140.753906,14.589844 L1853.5625,14.589844 L1868.78125,14.804688 C1879.16016,14.925781 1889.51563,15.832031 1899.75391,17.515625 C1909.44141,19.160156 1918.82813,22.242188 1927.60547,26.648438 C1944.90234,35.570312 1958.97266,49.675781 1967.85547,67.003906 C1972.19922,75.664062 1975.20313,84.933594 1976.77734,94.496094 C1978.50391,104.902344 1979.47266,115.421875 1979.67188,125.964844 C1979.71875,130.691406 1979.71875,135.761719 1979.71875,140.808594 C1979.84766,147.0625 1979.84766,153.015625 1979.84766,159.015625 L1979.84766,508 C1979.84766,514.058594 1979.84766,519.96875 1979.71875,525.929688 C1979.71875,531.355469 1979.71875,536.320312 1979.65625,541.433594 C1979.45703,551.792969 1978.51172,562.121094 1976.80859,572.339844 C1975.25,582.03125 1972.21484,591.421875 1967.80859,600.183594 C1963.41016,608.730469 1957.70313,616.527344 1950.87891,623.289062 C1944.07422,630.195312 1936.19922,635.949219 1927.55859,640.339844 C1918.80078,644.78125 1909.43359,647.871094 1899.75391,649.511719 C1889.45313,651.195312 1879.04297,652.101562 1868.60547,652.230469 C1863.71875,652.347656 1858.60938,652.410156 1853.64453,652.410156 L1835.57813,652.441406 L140.746094,652.410156 Z" id="Path" fill="#000000"></path>
            <path d="M165.874163,427.689593 L259.342762,427.689593 L254.875511,460.716112 L234.715525,460.716112 C230.248274,460.716112 226.697557,464.385717 226.697557,468.858056 C226.697557,473.330395 230.248274,477 234.715525,477 L372.282833,477 C376.751726,477 380.415984,473.330395 380.415984,468.858056 C380.415984,464.385717 376.751726,460.716112 372.282833,460.716112 L352.124724,460.716112 L347.65583,427.689593 L441.124899,427.689593 C463.002535,427.689593 474,416.910131 474,394.777824 L474,223.79723 C474,201.664754 463.002535,191 441.124899,191 L165.874163,191 C143.996292,191 133,201.664754 133,223.79723 L133,394.777824 C133,416.910131 143.996292,427.689593 165.874163,427.689593 Z M156.331855,367 C151.291058,367 149,364.825952 149,359.67662 L149,223.736406 C149,211.492652 154.727997,206 166.756698,206 L441.129042,206 C453.272941,206 459,211.492652 459,223.736406 L459,359.67662 C459,364.825952 456.595151,367 451.553181,367 L156.331855,367 Z M303.057938,413 C296.33336,413 291,407.757285 291,401.000024 C291,394.592266 296.33336,389 303.057938,389 C309.434889,389 315,394.592266 315,401.000024 C315,407.757285 309.434889,413 303.057938,413 Z" id="Shape" fill="#FFFFFF"></path>
            <path d="M610.705078,246 L619.728516,219.339844 L657.326172,219.339844 L666.349609,246 L682.550781,246 L646.935547,147.357422 L630.392578,147.357422 L594.777344,246 L610.705078,246 Z M653.429688,207.035156 L623.625,207.035156 L638.322266,163.763672 L638.732422,163.763672 L653.429688,207.035156 Z M721.447266,246 L747.21875,174.085938 L731.769531,174.085938 L713.722656,231.576172 L713.449219,231.576172 L695.402344,174.085938 L679.679688,174.085938 L705.587891,246 L721.447266,246 Z M775.246094,247.230469 C784.679688,247.230469 793.771484,242.171875 797.941406,234.173828 L798.283203,234.173828 L798.283203,246 L812.433594,246 L812.433594,196.439453 C812.433594,182.015625 801.291016,172.787109 783.859375,172.787109 C766.085938,172.787109 755.011719,182.357422 754.191406,195.345703 L768.136719,195.345703 C769.435547,188.919922 774.767578,184.818359 783.3125,184.818359 C792.335938,184.818359 797.736328,189.603516 797.736328,197.601562 L797.736328,203.138672 L778.048828,204.300781 C760.958984,205.257812 751.320312,212.982422 751.320312,225.560547 C751.320312,238.480469 761.164062,247.230469 775.246094,247.230469 Z M779.347656,235.541016 C771.417969,235.541016 766.222656,231.439453 766.222656,225.150391 C766.222656,218.998047 771.212891,215.101562 780.03125,214.486328 L797.736328,213.392578 L797.736328,219.066406 C797.736328,228.431641 789.669922,235.541016 779.347656,235.541016 Z M834.582031,162.464844 C839.298828,162.464844 843.058594,158.636719 843.058594,153.988281 C843.058594,149.271484 839.298828,145.511719 834.582031,145.511719 C829.865234,145.511719 826.037109,149.271484 826.037109,153.988281 C826.037109,158.636719 829.865234,162.464844 834.582031,162.464844 Z M841.964844,246 L841.964844,174.085938 L827.199219,174.085938 L827.199219,246 L841.964844,246 Z M872.384766,246 L872.384766,147.357422 L857.619141,147.357422 L857.619141,246 L872.384766,246 Z M908.615234,247.230469 C918.048828,247.230469 927.140625,242.171875 931.310547,234.173828 L931.652344,234.173828 L931.652344,246 L945.802734,246 L945.802734,196.439453 C945.802734,182.015625 934.660156,172.787109 917.228516,172.787109 C899.455078,172.787109 888.380859,182.357422 887.560547,195.345703 L901.505859,195.345703 C902.804688,188.919922 908.136719,184.818359 916.681641,184.818359 C925.705078,184.818359 931.105469,189.603516 931.105469,197.601562 L931.105469,203.138672 L911.417969,204.300781 C894.328125,205.257812 884.689453,212.982422 884.689453,225.560547 C884.689453,238.480469 894.533203,247.230469 908.615234,247.230469 Z M912.716797,235.541016 C904.787109,235.541016 899.591797,231.439453 899.591797,225.150391 C899.591797,218.998047 904.582031,215.101562 913.400391,214.486328 L931.105469,213.392578 L931.105469,219.066406 C931.105469,228.431641 923.039062,235.541016 912.716797,235.541016 Z M998.371094,247.230469 C1016.62305,247.230469 1028.38086,232.875 1028.38086,210.042969 C1028.38086,187.279297 1016.55469,172.923828 998.439453,172.923828 C988.253906,172.923828 980.050781,177.982422 975.744141,186.322266 L975.402344,186.322266 L975.402344,147.357422 L960.636719,147.357422 L960.636719,246 L974.992188,246 L974.992188,233.763672 L975.265625,233.763672 C979.708984,242.103516 987.84375,247.230469 998.371094,247.230469 Z M994.40625,234.720703 C983.195312,234.720703 975.333984,225.013672 975.333984,210.042969 C975.333984,195.208984 983.195312,185.365234 994.40625,185.365234 C1006.02734,185.365234 1013.20508,194.935547 1013.20508,210.042969 C1013.20508,225.287109 1006.02734,234.720703 994.40625,234.720703 Z M1055.17773,246 L1055.17773,147.357422 L1040.41211,147.357422 L1040.41211,246 L1055.17773,246 Z M1101.04688,247.367188 C1117.52148,247.367188 1129.96289,238.001953 1132.01367,224.876953 L1118,224.876953 C1116.01758,231.166016 1109.79688,235.404297 1101.38867,235.404297 C1089.5625,235.404297 1082.04297,227.132812 1082.04297,214.623047 L1082.04297,213.734375 L1132.83398,213.734375 L1132.83398,208.675781 C1132.83398,186.869141 1120.39258,172.787109 1100.43164,172.787109 C1080.12891,172.787109 1067.14062,187.826172 1067.14062,210.384766 C1067.14062,233.080078 1079.92383,247.367188 1101.04688,247.367188 Z M1118.06836,203.412109 L1082.11133,203.412109 C1082.86328,192.542969 1090.10938,184.681641 1100.43164,184.681641 C1110.75391,184.681641 1117.72656,192.40625 1118.06836,203.412109 Z M1193.67383,247.230469 C1203.10742,247.230469 1212.19922,242.171875 1216.36914,234.173828 L1216.71094,234.173828 L1216.71094,246 L1230.86133,246 L1230.86133,196.439453 C1230.86133,182.015625 1219.71875,172.787109 1202.28711,172.787109 C1184.51367,172.787109 1173.43945,182.357422 1172.61914,195.345703 L1186.56445,195.345703 C1187.86328,188.919922 1193.19531,184.818359 1201.74023,184.818359 C1210.76367,184.818359 1216.16406,189.603516 1216.16406,197.601562 L1216.16406,203.138672 L1196.47656,204.300781 C1179.38672,205.257812 1169.74805,212.982422 1169.74805,225.560547 C1169.74805,238.480469 1179.5918,247.230469 1193.67383,247.230469 Z M1197.77539,235.541016 C1189.8457,235.541016 1184.65039,231.439453 1184.65039,225.150391 C1184.65039,218.998047 1189.64062,215.101562 1198.45898,214.486328 L1216.16406,213.392578 L1216.16406,219.066406 C1216.16406,228.431641 1208.09766,235.541016 1197.77539,235.541016 Z M1272.15039,247.367188 C1289.10352,247.367188 1301.33984,238.34375 1301.33984,225.21875 C1301.33984,214.828125 1295.73438,209.085938 1281.03711,205.667969 L1269.34766,203.001953 C1261.55469,201.224609 1258.27344,198.148438 1258.27344,193.636719 C1258.27344,187.894531 1263.60547,183.998047 1271.60352,183.998047 C1279.875,183.998047 1285.00195,188.373047 1285.82227,195.345703 L1299.69922,195.345703 C1299.2207,182.083984 1288.35156,172.787109 1271.60352,172.787109 C1255.06055,172.787109 1243.84961,181.605469 1243.84961,194.457031 C1243.84961,204.916016 1250.61719,211.478516 1264.28906,214.623047 L1275.97852,217.357422 C1283.83984,219.134766 1286.50586,221.869141 1286.50586,226.517578 C1286.50586,232.396484 1281.03711,236.087891 1272.15039,236.087891 C1263.12695,236.087891 1258,232.396484 1256.63281,224.876953 L1242.00391,224.876953 C1243.37109,238.548828 1254.17188,247.367188 1272.15039,247.367188 Z" id="Availableas" fill="#FFFFFF"></path>
            <path d="M684.018066,506 L727.904297,352.46875 L729.31543,352.46875 L773.342773,506 L803.117676,506 L858.151855,302.373535 L825.272461,302.373535 L787.595215,461.831543 L786.466309,461.831543 L743.285645,302.373535 L713.934082,302.373535 L670.894531,461.831543 L669.765625,461.831543 L632.088379,302.373535 L599.208984,302.373535 L654.102051,506 L684.018066,506 Z M926.73291,508.822266 C960.741211,508.822266 986.423828,489.489746 990.657227,462.395996 L961.729004,462.395996 C957.636719,475.378418 944.79541,484.127441 927.438477,484.127441 C903.025879,484.127441 887.503418,467.052734 887.503418,441.229004 L887.503418,439.394531 L992.350586,439.394531 L992.350586,428.952148 C992.350586,383.937012 966.667969,354.867676 925.462891,354.867676 C883.552246,354.867676 856.740723,385.912598 856.740723,432.47998 C856.740723,479.32959 883.128906,508.822266 926.73291,508.822266 Z M961.870117,418.086426 L887.644531,418.086426 C889.196777,395.649414 904.154785,379.421387 925.462891,379.421387 C946.770996,379.421387 961.164551,395.367188 961.870117,418.086426 Z M1094.93994,508.540039 C1132.61719,508.540039 1156.88867,478.90625 1156.88867,431.774414 C1156.88867,384.783691 1132.47607,355.149902 1095.08105,355.149902 C1074.05518,355.149902 1057.12158,365.592285 1048.23145,382.808105 L1047.52588,382.808105 L1047.52588,302.373535 L1017.04541,302.373535 L1017.04541,506 L1046.6792,506 L1046.6792,480.740723 L1047.24365,480.740723 C1056.41602,497.956543 1073.2085,508.540039 1094.93994,508.540039 Z M1086.75537,482.716309 C1063.61279,482.716309 1047.38477,462.678223 1047.38477,431.774414 C1047.38477,401.152832 1063.61279,380.83252 1086.75537,380.83252 C1110.74463,380.83252 1125.56152,400.588379 1125.56152,431.774414 C1125.56152,463.242676 1110.74463,482.716309 1086.75537,482.716309 Z M1260.60693,506 L1279.23389,450.96582 L1356.84619,450.96582 L1375.47314,506 L1408.91699,506 L1335.39697,302.373535 L1301.24756,302.373535 L1227.72754,506 L1260.60693,506 Z M1348.80273,425.56543 L1287.27734,425.56543 L1317.6167,336.240723 L1318.46338,336.240723 L1348.80273,425.56543 Z M1458.16553,555.107422 L1458.16553,481.587402 L1458.87109,481.587402 C1467.33789,498.097656 1484.27148,508.540039 1505.57959,508.540039 C1542.8335,508.540039 1567.52832,478.765137 1567.52832,431.774414 C1567.52832,384.783691 1542.69238,355.149902 1505.01514,355.149902 C1483.56592,355.149902 1466.49121,366.015625 1457.74219,383.090332 L1457.17773,383.090332 L1457.17773,357.548828 L1427.68506,357.548828 L1427.68506,555.107422 L1458.16553,555.107422 Z M1496.97168,482.716309 C1473.54688,482.716309 1458.02441,462.678223 1458.02441,431.774414 C1458.02441,401.152832 1473.68799,380.83252 1496.97168,380.83252 C1521.10205,380.83252 1536.20117,400.729492 1536.20117,431.774414 C1536.20117,462.960449 1521.10205,482.716309 1496.97168,482.716309 Z M1621.43359,555.107422 L1621.43359,481.587402 L1622.13916,481.587402 C1630.60596,498.097656 1647.53955,508.540039 1668.84766,508.540039 C1706.10156,508.540039 1730.79639,478.765137 1730.79639,431.774414 C1730.79639,384.783691 1705.96045,355.149902 1668.2832,355.149902 C1646.83398,355.149902 1629.75928,366.015625 1621.01025,383.090332 L1620.4458,383.090332 L1620.4458,357.548828 L1590.95312,357.548828 L1590.95312,555.107422 L1621.43359,555.107422 Z M1660.23975,482.716309 C1636.81494,482.716309 1621.29248,462.678223 1621.29248,431.774414 C1621.29248,401.152832 1636.95605,380.83252 1660.23975,380.83252 C1684.37012,380.83252 1699.46924,400.729492 1699.46924,431.774414 C1699.46924,462.960449 1684.37012,482.716309 1660.23975,482.716309 Z" id="WebApp" fill="#FFFFFF"></path>
        </g>
    </g>
</svg>