<svg width="100" height="100" viewBox="0 0 100 100" fill="none" xmlns="http://www.w3.org/2000/svg">
<circle cx="50" cy="50" r="50" fill="white"/>
<path d="M78.7251 32.6946C78.0236 30.0609 75.9557 27.9845 73.3327 27.2801C68.5747 26 49.5 26 49.5 26C49.5 26 30.4253 26 25.6673 27.2801C23.0443 27.9845 20.9764 30.0609 20.2749 32.6946C19 37.4721 19 50.5 19 50.5C19 50.5 19 63.5279 20.2749 68.3054C20.9764 70.9391 23.0443 73.0155 25.6673 73.7199C30.4253 75 49.5 75 49.5 75C49.5 75 68.5747 75 73.3327 73.7199C75.9587 73.0155 78.0236 70.9391 78.7251 68.3054C80 63.5279 80 50.5 80 50.5C80 50.5 80 37.4721 78.7251 32.6946ZM43.4 61.1085V39.8915L61.7 50.5L43.4 61.1085Z" fill="black"/>
</svg>
